HIERARCHY
ROOT Hips
{
	OFFSET 0.000000 0.000000 0.000000
	CHANNELS 6 Xposition Yposition Zposition Zrotation Yrotation Xrotation 
	JOINT LHipJoint
	{
		OFFSET 0.000000 0.000000 0.000000
		CHANNELS 3 Zrotation Yrotation Xrotation
		JOINT LeftUpLeg
		{
			OFFSET 1.363060 -1.794630 0.839290
			CHANNELS 3 Zrotation Yrotation Xrotation
			JOINT LeftLeg
			{
				OFFSET 2.448110 -6.726130 0.000000
				CHANNELS 3 Zrotation Yrotation Xrotation
				JOINT LeftFoot
				{
					OFFSET 2.562200 -7.039590 0.000000
					CHANNELS 3 Zrotation Yrotation Xrotation
					JOINT LeftToeBase
					{
						OFFSET 0.157640 -0.433110 2.322550
						CHANNELS 3 Zrotation Yrotation Xrotation
						End Site
						{
							OFFSET 0.000000 0.000000 0.000000
						}
					}
				}
			}
		}
	}
	JOINT RHipJoint
	{
		OFFSET 0.000000 0.000000 0.000000
		CHANNELS 3 Zrotation Yrotation Xrotation
		JOINT RightUpLeg
		{
			OFFSET -1.305520 -1.794630 0.839290
			CHANNELS 3 Zrotation Yrotation Xrotation
			JOINT RightLeg
			{
				OFFSET -2.542530 -6.985550 0.000000
				CHANNELS 3 Zrotation Yrotation Xrotation
				JOINT RightFoot
				{
					OFFSET -2.568260 -7.056230 0.000000
					CHANNELS 3 Zrotation Yrotation Xrotation
					JOINT RightToeBase
					{
						OFFSET -0.164730 -0.452590 2.363150
						CHANNELS 3 Zrotation Yrotation Xrotation
						End Site
						{
							OFFSET 0.000000 0.000000 0.000000
						}
					}
				}
			}
		}
	}
}
MOTION
Frames: 30
Frame Time: 0.008333
1.051434 16.795949 -0.499727 -159.026147 86.017320 -158.873772 -11.539431 5.386617 -0.429254 -6.173307 12.737707 8.955413 -0.265595 2.773936 33.837150 1.080979 4.145132 13.462776 1.062000 0.000000 -65.635500 9.078554 -0.425033 0.561617 7.616875 -8.844946 -26.743837 2.473697 -0.860081 20.528142 -0.482461 -1.383073 -3.542387 -0.366800 0.000000 -55.539700
1.312787 16.787479 -0.522045 -159.163904 85.731044 -159.364237 -11.689698 5.424915 -0.497389 -5.456719 13.594344 7.776716 -0.026576 2.906198 37.012330 1.305939 5.202697 15.516918 1.467500 -0.000000 -61.963100 9.182960 -0.539590 0.400188 7.418057 -9.665607 -26.406006 2.372515 -1.059259 22.235544 -0.340405 -0.661336 -2.798251 -0.306401 -0.000000 -55.041800
1.569092 16.777193 -0.546116 -159.164489 85.445149 -159.706614 -11.835728 5.426245 -0.581000 -4.809492 14.438253 6.457711 0.187036 3.021122 40.263665 1.551869 6.636191 17.077671 2.050200 0.000000 -56.952000 9.275282 -0.647436 0.220971 7.240354 -10.623854 -26.037725 2.283144 -1.226602 23.805634 -0.225327 -0.006789 -2.257420 -0.234100 0.000000 -54.147100
1.820173 16.765199 -0.571673 -159.062461 85.163790 -159.912538 -11.973160 5.394452 -0.678690 -4.257958 15.250533 4.988638 0.372865 3.127737 43.541945 1.802858 8.387606 18.028042 2.779700 -0.000001 -50.923300 9.352276 -0.748114 0.042802 7.071101 -11.617306 -25.645052 2.207030 -1.362688 25.236801 -0.142096 0.532759 -1.979156 -0.163900 -0.000000 -52.798700
2.065978 16.751770 -0.598956 -158.885363 84.891346 -160.008112 -12.098326 5.334943 -0.788777 -3.823292 16.004387 3.403846 0.533410 3.234173 46.763266 2.046247 10.346689 18.346112 3.581800 0.000000 -44.788200 9.413172 -0.841620 -0.130907 6.902858 -12.598783 -25.201675 2.148031 -1.468496 26.501977 -0.087009 0.953893 -1.980147 -0.104600 0.000000 -51.150100
2.306830 16.737425 -0.627919 -158.718599 84.630762 -160.066466 -12.207251 5.253166 -0.906320 -3.530615 16.682722 1.707969 0.673918 3.344581 49.873293 2.272920 12.390101 18.037146 4.360000 0.000000 -39.098900 9.460557 -0.927833 -0.290124 6.724157 -13.507030 -24.710015 2.105906 -1.547627 27.605994 -0.058095 1.247727 -2.263754 -0.062300 0.000000 -49.274800
2.543229 16.722774 -0.658724 -158.643186 84.383681 -160.162671 -12.296786 5.154375 -1.026600 -3.397952 17.275373 -0.090503 0.799107 3.460017 52.827717 2.475903 14.388655 17.129770 5.010000 -0.000000 -34.157300 9.498550 -1.006811 -0.428696 6.525089 -14.303708 -24.169588 2.079280 -1.603647 28.551290 -0.052063 1.419598 -2.803912 -0.037600 -0.000000 -47.308300
2.775743 16.708533 -0.691533 -158.723557 84.150289 -160.358140 -12.364919 5.043015 -1.145177 -3.435191 17.779656 -1.984516 0.911487 3.578592 55.590847 2.650351 16.229212 15.666734 5.440800 -0.000000 -30.028900 9.531529 -1.078869 -0.542106 6.298175 -14.964436 -23.582011 2.065178 -1.639901 29.341813 -0.066017 1.478603 -3.551740 -0.027100 0.000000 -45.407500
3.005035 16.695432 -0.726644 -158.996751 83.929007 -160.689993 -12.410741 4.922670 -1.258744 -3.642093 18.200622 -3.965799 1.010407 3.696742 58.134442 2.792538 17.820713 13.688724 5.583200 0.000000 -26.506100 9.563206 -1.144769 -0.627475 6.039229 -15.477492 -22.950669 2.059572 -1.659405 29.982359 -0.097519 1.434829 -4.442811 -0.024900 -0.000000 -43.737500
3.231635 16.684138 -0.764367 -159.477110 83.716405 -161.176488 -12.434212 4.795827 -1.364410 -4.010758 18.543915 -6.020747 1.091952 3.809862 60.431202 2.900902 19.103942 11.252554 5.403399 0.000000 -23.341400 9.596337 -1.205489 -0.684770 5.746700 -15.845542 -22.277634 2.057956 -1.664817 30.477210 -0.144147 1.299085 -5.403904 -0.024900 0.000000 -42.453400
3.456079 16.675253 -0.805014 -160.164114 83.507611 -161.823622 -12.435870 4.663765 -1.458699 -4.528734 18.811216 -8.127953 1.150165 3.912382 62.450784 2.977609 20.059811 8.470702 4.920200 -0.000000 -20.623900 9.632842 -1.261914 -0.716797 5.419299 -16.083924 -21.562771 2.055931 -1.658426 30.829673 -0.203212 1.082555 -6.361948 -0.022000 -0.000000 -41.676299
3.678675 16.669243 -0.848791 -161.032900 83.296450 -162.617182 -12.416562 4.527774 -1.541313 -5.173430 19.014044 -10.264761 1.177393 4.000935 64.175265 3.023343 20.678902 5.401837 4.162999 0.000000 -17.870900 9.673559 -1.315482 -0.728387 5.057672 -16.217906 -20.802681 2.050086 -1.642253 31.042769 -0.271479 0.798256 -7.253330 -0.013099 0.000000 -41.470299
3.899651 16.666445 -0.895787 -162.059876 83.076542 -163.545581 -12.377299 4.387852 -1.610414 -5.923905 19.156497 -12.402348 1.168007 4.071373 65.580124 3.044547 20.997536 2.201408 3.219400 0.000000 -15.337700 9.718993 -1.366888 -0.726610 4.660366 -16.280515 -19.990428 2.038146 -1.617727 31.116602 -0.345189 0.461444 -8.027747 0.002199 0.000000 -41.833600
4.119091 16.666984 -0.945959 -163.212272 82.841406 -164.589376 -12.318952 4.244274 -1.667065 -6.755800 19.252469 -14.513951 1.118320 4.121749 66.652471 3.047017 21.058640 -1.020955 2.172500 -0.000000 -12.864300 9.769171 -1.417023 -0.719164 4.226185 -16.308020 -19.116578 2.019373 -1.585948 31.050767 -0.420312 0.089860 -8.652865 0.022300 -0.000000 -42.700000
4.337034 16.670831 -0.999161 -164.459283 82.586100 -165.730320 -12.242319 4.097064 -1.712354 -7.648328 19.315956 -16.574678 1.028738 4.150544 67.381118 3.038891 20.926641 -4.133939 1.113300 0.000000 -10.534200 9.823939 -1.466417 -0.713612 3.752898 -16.335850 -18.170109 1.994243 -1.547480 30.842964 -0.492860 -0.297096 -9.112824 0.043900 -0.000001 -43.959300
4.553486 16.677738 -1.055183 -165.767646 82.307566 -166.945928 -12.148149 3.946663 -1.748600 -8.584579 19.365503 -18.563702 0.902862 4.157231 67.760618 3.028217 20.670636 -7.032886 0.112800 0.000000 -8.354800 9.882824 -1.515494 -0.716385 3.238937 -16.394529 -17.141122 1.964129 -1.502569 30.490603 -0.559399 -0.680813 -9.405996 0.063600 -0.000000 -45.480100
4.768480 16.687364 -1.113673 -167.111267 82.005737 -168.218322 -12.036958 3.794036 -1.777910 -9.553171 19.419003 -20.464181 0.746844 4.141578 67.788376 3.022517 20.360498 -9.633853 -0.780700 0.000000 -6.384500 9.945349 -1.564748 -0.731851 2.683003 -16.506212 -16.020397 1.930582 -1.451190 29.990504 -0.617422 -1.046030 -9.540054 0.078000 -0.000001 -47.135201
4.982161 16.699120 -1.174406 -168.460704 81.683924 -169.521754 -11.909380 3.640593 -1.803020 -10.547157 19.495006 -22.265250 0.566819 4.103885 67.466598 3.027514 20.054200 -11.902198 -1.550100 -0.000001 -4.546600 10.010619 -1.614623 -0.762406 2.086192 -16.683901 -14.804954 1.895312 -1.393442 29.343043 -0.665392 -1.380849 -9.530525 0.084800 0.000000 -48.818200
5.194726 16.712445 -1.237142 -169.792348 81.348559 -170.833247 -11.766096 3.488368 -1.825487 -11.563602 19.608495 -23.959169 0.368654 4.044300 66.797667 3.047085 19.796845 -13.822953 -2.195000 0.000001 -2.844200 10.077605 -1.665808 -0.807471 1.451634 -16.928312 -13.495394 1.859258 -1.329366 28.549851 -0.703234 -1.681451 -9.394188 0.083001 0.000000 -50.448700
5.406502 16.726681 -1.301742 -171.084357 81.008761 -172.126965 -11.607985 3.339487 -1.846079 -12.601417 19.770689 -25.544819 0.156394 3.963060 65.786002 3.082638 19.612619 -15.412278 -2.728500 -0.000000 -1.230100 10.145026 -1.719038 -0.864573 0.786032 -17.231927 -12.100515 1.822848 -1.259376 27.618867 -0.731864 -1.949354 -9.148474 0.072100 0.000000 -51.979800
5.617941 16.741267 -1.368229 -172.318181 80.674747 -173.376744 -11.436150 3.196296 -1.864146 -13.660711 19.988631 -27.025324 -0.067190 3.860303 64.436926 3.133229 19.506170 -16.696159 176.834401 -0.000000 -0.281100 10.211537 -1.775292 -0.929013 0.098701 -17.578861 -10.635866 1.785759 -1.184146 26.563050 -0.753157 -2.192299 -8.808246 0.052300 -0.000001 -53.384900
5.829533 16.755685 -1.436703 -173.479099 80.356471 -174.557868 -11.251762 3.061114 -1.877691 -14.742724 20.264772 -28.409241 -0.300677 3.736220 62.757674 3.195703 19.462912 -17.708876 176.480800 -0.000000 -1.668600 10.275947 -1.835632 -0.995352 -0.598863 -17.951987 -9.125025 1.747279 -1.104930 25.403656 -0.769186 -2.420096 -8.384812 0.023700 -0.000000 -54.667600
6.041821 16.769627 -1.507400 -174.558082 80.062043 -175.650295 -11.056085 2.936137 -1.883825 -15.848185 20.597281 -29.706885 -0.543384 3.590997 60.756281 3.265076 19.453772 -18.481982 176.203600 0.000000 -2.871300 10.337350 -1.901091 -1.057697 -1.294655 -18.331781 -7.595206 1.706330 -1.023342 24.166315 -0.782021 -2.643776 -7.884520 -0.013700 0.000000 -55.842600
6.255307 16.782938 -1.580591 -175.551609 79.795534 -176.640388 -10.850250 2.823584 -1.878832 -16.979167 20.980902 -30.928974 -0.795124 3.424710 58.442165 3.335179 19.440397 -19.043720 176.000800 0.000000 -3.814400 10.395474 -1.972730 -1.110877 -1.979167 -18.703935 -6.076664 1.661898 -0.941686 22.884051 -0.792922 -2.870440 -7.309035 -0.060800 -0.000000 -56.938100
6.470351 16.795669 -1.656648 -176.453202 79.557505 -177.514089 -10.635643 2.725558 -1.859086 -18.136523 21.407723 -32.082427 -1.056207 3.237378 55.825463 3.399371 19.380758 -19.420451 175.873000 -0.000000 -4.452500 10.450116 -2.051575 -1.150631 -2.643773 -19.054667 -4.595988 1.613015 -0.862430 21.589367 -0.802602 -3.104968 -6.654265 -0.118701 -0.000000 -57.984301
6.687272 16.807943 -1.735996 -177.264466 79.343794 -178.268157 -10.413556 2.643852 -1.821331 -19.322299 21.866436 -33.169214 -1.326933 3.028642 52.917982 3.451266 19.235782 -19.633480 175.822100 0.000000 -4.726800 10.502038 -2.137930 -1.175729 -3.287626 -19.382476 -3.179944 1.559457 -0.789005 20.322669 -0.809612 -3.338705 -5.912205 -0.188600 -0.000000 -59.031300
6.906126 16.820032 -1.819063 -177.976187 79.146892 -178.894152 -10.185944 2.579549 -1.763055 -20.534173 22.344463 -34.182344 -1.607813 2.797491 49.732131 3.485404 18.973442 -19.706299 175.846800 0.000000 -4.653400 10.551604 -2.232129 -1.186053 -3.910553 -19.683959 -1.845001 1.501035 -0.724667 19.118205 -0.812175 -3.560997 -5.070106 -0.271400 0.000001 -60.121900
7.126904 16.832243 -1.906300 -178.581530 78.958168 -179.389312 -9.955380 2.532655 -1.682678 -21.766407 22.825707 -35.105806 -1.898568 2.542116 46.283383 3.497374 18.572884 -19.657035 175.943600 0.000000 -4.261000 10.599484 -2.333724 -1.184402 -4.518273 -19.962248 -0.601850 1.438045 -0.673148 18.011821 -0.807014 -3.750090 -4.112882 -0.366400 0.000000 -61.305300
7.349306 16.844733 -1.998143 -179.061453 78.769772 -179.743426 -9.725817 2.501157 -1.579682 -23.003685 23.291733 -35.914844 -2.197648 2.259895 42.593128 3.484360 18.027520 -19.504107 176.104499 -0.000000 -3.623200 10.645736 -2.441693 -1.175428 -5.117372 -20.220300 0.546851 1.370893 -0.638008 17.035059 -0.790617 -3.880045 -3.024073 -0.471000 -0.000000 -62.627300
7.572973 16.857547 -2.095079 -179.391124 78.577232 -179.943437 -9.503281 2.480631 -1.454598 -24.218117 23.720078 -36.578226 -2.500068 1.948210 38.693219 3.444375 17.347981 -19.246473 176.323200 0.000000 -2.676400 10.689851 -2.554174 -1.165996 -5.714933 -20.462174 1.604448 1.299982 -0.622737 16.217925 -0.759534 -3.920541 -1.787819 -0.578900 0.000000 -64.138200
